<mxfile host="app.diagrams.net" modified="2023-05-20T11:12:15.415Z" agent="Mozilla/5.0 (Windows NT 10.0; Win64; x64) AppleWebKit/537.36 (KHTML, like Gecko) Chrome/113.0.0.0 Safari/537.36 Edg/113.0.1774.42" etag="QQCK2IECWyvgDSLLeYns" version="21.2.9" type="github">
  <diagram name="第 1 页" id="WqTCgqr9anvSwz3p9FUp">
    <mxGraphModel dx="739" dy="413" grid="1" gridSize="10" guides="1" tooltips="1" connect="1" arrows="1" fold="1" page="1" pageScale="1" pageWidth="827" pageHeight="1169" math="0" shadow="0">
      <root>
        <mxCell id="0" />
        <mxCell id="1" parent="0" />
        <mxCell id="aALTrSaZyjcdGFRORZTF-28" style="edgeStyle=orthogonalEdgeStyle;rounded=0;orthogonalLoop=1;jettySize=auto;html=1;exitX=1;exitY=0.5;exitDx=0;exitDy=0;entryX=0;entryY=0.5;entryDx=0;entryDy=0;dashed=1;" edge="1" parent="1" source="aALTrSaZyjcdGFRORZTF-2" target="aALTrSaZyjcdGFRORZTF-27">
          <mxGeometry relative="1" as="geometry" />
        </mxCell>
        <mxCell id="aALTrSaZyjcdGFRORZTF-30" style="edgeStyle=orthogonalEdgeStyle;rounded=0;orthogonalLoop=1;jettySize=auto;html=1;exitX=0.5;exitY=1;exitDx=0;exitDy=0;entryX=0.5;entryY=0;entryDx=0;entryDy=0;" edge="1" parent="1" source="aALTrSaZyjcdGFRORZTF-2" target="aALTrSaZyjcdGFRORZTF-29">
          <mxGeometry relative="1" as="geometry" />
        </mxCell>
        <mxCell id="aALTrSaZyjcdGFRORZTF-2" value="&lt;h3 style=&quot;margin: 0px; padding: 0px; font-size: 20px; font-weight: 400; line-height: 1; color: rgb(53, 53, 53); font-family: mp-quote, -apple-system-font, BlinkMacSystemFont, &amp;quot;Helvetica Neue&amp;quot;, &amp;quot;PingFang SC&amp;quot;, &amp;quot;Hiragino Sans GB&amp;quot;, &amp;quot;Microsoft YaHei UI&amp;quot;, &amp;quot;Microsoft YaHei&amp;quot;, Arial, sans-serif; text-align: start; background-color: rgb(255, 255, 255);&quot; class=&quot;weui-desktop-panel__title&quot;&gt;服务器配置&lt;/h3&gt;" style="rounded=1;whiteSpace=wrap;html=1;fontSize=12;glass=0;strokeWidth=1;shadow=0;" vertex="1" parent="1">
          <mxGeometry x="160" y="80" width="120" height="50" as="geometry" />
        </mxCell>
        <mxCell id="aALTrSaZyjcdGFRORZTF-18" style="edgeStyle=orthogonalEdgeStyle;rounded=0;orthogonalLoop=1;jettySize=auto;html=1;exitX=0.5;exitY=1;exitDx=0;exitDy=0;entryX=0.5;entryY=0;entryDx=0;entryDy=0;" edge="1" parent="1" source="aALTrSaZyjcdGFRORZTF-19" target="aALTrSaZyjcdGFRORZTF-2">
          <mxGeometry relative="1" as="geometry" />
        </mxCell>
        <mxCell id="aALTrSaZyjcdGFRORZTF-19" value="开始" style="ellipse;whiteSpace=wrap;html=1;aspect=fixed;fillColor=#dae8fc;strokeColor=#6c8ebf;" vertex="1" parent="1">
          <mxGeometry x="195" width="50" height="50" as="geometry" />
        </mxCell>
        <mxCell id="aALTrSaZyjcdGFRORZTF-20" value="结束" style="ellipse;whiteSpace=wrap;html=1;aspect=fixed;fillColor=#d5e8d4;strokeColor=#82b366;" vertex="1" parent="1">
          <mxGeometry x="195" y="280" width="50" height="50" as="geometry" />
        </mxCell>
        <mxCell id="aALTrSaZyjcdGFRORZTF-27" value="1、服务器地址&lt;span style=&quot;margin: 0px; padding: 0px; color: rgb(53, 53, 53); font-family: mp-quote, -apple-system-font, BlinkMacSystemFont, &amp;quot;Helvetica Neue&amp;quot;, &amp;quot;PingFang SC&amp;quot;, &amp;quot;Hiragino Sans GB&amp;quot;, &amp;quot;Microsoft YaHei UI&amp;quot;, &amp;quot;Microsoft YaHei&amp;quot;, Arial, sans-serif; font-size: 14px; background-color: rgb(255, 255, 255);&quot; class=&quot;tips&quot;&gt;(URL)&lt;br&gt;2、令牌(Token)&lt;br&gt;3、消息加解密密钥&lt;br&gt;&lt;/span&gt;" style="rounded=1;whiteSpace=wrap;html=1;align=left;" vertex="1" parent="1">
          <mxGeometry x="340" y="70" width="130" height="70" as="geometry" />
        </mxCell>
        <mxCell id="aALTrSaZyjcdGFRORZTF-31" style="edgeStyle=orthogonalEdgeStyle;rounded=0;orthogonalLoop=1;jettySize=auto;html=1;exitX=0.5;exitY=1;exitDx=0;exitDy=0;" edge="1" parent="1" source="aALTrSaZyjcdGFRORZTF-29" target="aALTrSaZyjcdGFRORZTF-20">
          <mxGeometry relative="1" as="geometry" />
        </mxCell>
        <mxCell id="aALTrSaZyjcdGFRORZTF-32" style="edgeStyle=orthogonalEdgeStyle;rounded=0;orthogonalLoop=1;jettySize=auto;html=1;dashed=1;" edge="1" parent="1" source="aALTrSaZyjcdGFRORZTF-29">
          <mxGeometry relative="1" as="geometry">
            <mxPoint x="340" y="195" as="targetPoint" />
          </mxGeometry>
        </mxCell>
        <mxCell id="aALTrSaZyjcdGFRORZTF-29" value="&lt;h3 style=&quot;margin: 0px; padding: 0px; font-size: 20px; font-weight: 400; line-height: 1; color: rgb(53, 53, 53); font-family: mp-quote, -apple-system-font, BlinkMacSystemFont, &amp;quot;Helvetica Neue&amp;quot;, &amp;quot;PingFang SC&amp;quot;, &amp;quot;Hiragino Sans GB&amp;quot;, &amp;quot;Microsoft YaHei UI&amp;quot;, &amp;quot;Microsoft YaHei&amp;quot;, Arial, sans-serif; text-align: start; background-color: rgb(255, 255, 255);&quot; class=&quot;weui-desktop-panel__title&quot;&gt;认证接口&lt;/h3&gt;" style="rounded=1;whiteSpace=wrap;html=1;fontSize=12;glass=0;strokeWidth=1;shadow=0;" vertex="1" parent="1">
          <mxGeometry x="160" y="170" width="120" height="50" as="geometry" />
        </mxCell>
        <mxCell id="aALTrSaZyjcdGFRORZTF-33" value="1、服务器地址&lt;span style=&quot;margin: 0px; padding: 0px; color: rgb(53, 53, 53); font-family: mp-quote, -apple-system-font, BlinkMacSystemFont, &amp;quot;Helvetica Neue&amp;quot;, &amp;quot;PingFang SC&amp;quot;, &amp;quot;Hiragino Sans GB&amp;quot;, &amp;quot;Microsoft YaHei UI&amp;quot;, &amp;quot;Microsoft YaHei&amp;quot;, Arial, sans-serif; font-size: 14px; background-color: rgb(255, 255, 255);&quot; class=&quot;tips&quot;&gt;(URL)&lt;br&gt;2、令牌(Token)&lt;br&gt;3、消息加解密密钥&lt;br&gt;&lt;/span&gt;" style="rounded=1;whiteSpace=wrap;html=1;align=left;" vertex="1" parent="1">
          <mxGeometry x="340" y="160" width="130" height="70" as="geometry" />
        </mxCell>
      </root>
    </mxGraphModel>
  </diagram>
</mxfile>
